<svg xmlns="http://www.w3.org/2000/svg" viewBox="0 0 960 960">
  <rect width="960" height="960" fill="#cc472e" rx="200"/>
  <g fill="#000201">
    <path d="M323.96,730.32h-38.33s0-325.78,0-325.78h38.33s312.08,108.42,312.08,108.42v-108.42h38.33v150.75h-38.33s-312.08-108.44-312.08-108.44v283.47Z"/>
    <path d="M674.37,609.73h-111.34v30.58h96.26v26.92h-96.26v32.95h111.34v30.15h-149.67v-150.74h149.67v30.15Z"/>
    <path d="M382.53,233.18c42.64,0,63.1,20.68,63.1,52.11s-20.46,52.33-63.1,52.33h-58.58v46.3h-38.33v-150.74h96.91ZM381.03,306.83c17.66,0,26.27-8.61,26.27-21.54s-8.61-21.32-26.27-21.32h-59.01v42.86h59.01Z"/>
    <path d="M466.1,307.64c0-43.38,41.73-77.96,102.46-77.96s105.81,30.34,105.81,77.96c0,44.29-34.65,79.78-105.44,79.78-53.65,0-102.83-30.94-102.83-79.78ZM625.94,361.03c0-25.48-62.59-120.43-95.38-120.43-9.32,0-14.9,5.46-14.9,14.86,0,29.73,64.46,121.04,95.01,121.04,10.06,0,15.28-5.16,15.28-15.47Z"/>
    <path d="M504.87,638.62h-.23c-16.94-36.01-35.91-53.18-56.23-55.48v143.83h20.32v3.35h-90.33v-3.35h20.32v-143.83c-20.1,2.3-39.07,19.47-56,55.48h-.23v-59.04h162.37v59.04Z"/>
  </g>
</svg>
