<?xml version="1.0" encoding="UTF-8"?>
<svg id="Layer_2" data-name="Layer 2" xmlns="http://www.w3.org/2000/svg" viewBox="0 0 87.35 128.12">
  <defs>
    <style>
      .cls-1 {
        fill: #dd3a26;
      }

      .cls-2 {
        fill: #020403;
      }
    </style>
  </defs>
  <g id="Layer_1-2" data-name="Layer 1">
    <g>
      <path class="cls-1" d="M1.99,111.83c-2.13-2.44-2.23-5.11-1.76-7.99,2.3-14.29,5.99-28.07,11.92-41.37l9.99-22.43c-.42-1.05-.8-2.97-.41-3.77l3.92-7.91c1.75-3.53,5.81-2.54,8.69-5.92,4.55-5.34,10.71-7.92,17.53-8.04l7.66-11.25c4.81-7.07,18.16-.88,24.53,5.03,2.54,2.35,3.45,5.84,2.32,9.07l-4.29,12.34c3.86,4.92,5.48,10.86,4.37,17.04-.57,3.17,0,5.71.77,8.84.66,2.69-1.83,5.87-2.84,8.32-1.07,2.58-2.5,4.36-4.97,5.12l-6.33,11.99c-8.54,16.18-18.99,30.88-31.41,44.23-2.03,2.18-4.44,3.17-7.42,2.95-12.41-.93-23.93-6.68-32.29-16.26M56.89,14.65l-1.19,1.99c6.59,5.58,13.99,9.83,22.65,11.05l4.14-12.17c.48-1.42-.32-3.5-1.41-4.42-5.62-4.72-15.64-9.13-18.07-5.71l-4.71,6.65c5.18,4.65,10.88,7.85,17.6,9.77.28.28,1.23,1.63.82,1.79l-1.87.73c-6.9-1.47-12.31-5.03-17.97-9.68M25.63,38.17c13.78,13.87,34.39,24.21,53.48,26.44,1.62-2.45,3.2-5.46,4.06-8.13-1.2-3.59-1.5-6.68-.84-10.35.96-5.38-.52-10.82-4.23-14.63-9.73-1.34-18.45-5.91-25.48-12.8-5.54-.44-10.67,1.88-14.55,5.99-1.6,1.7-3.36,3.06-5.32,4.31,12.35,11.38,26.77,19.36,42.89,22.92.49.36,1.71,1.5,1.34,1.8l-1.63,1.33c-8.14-1.61-15.63-4.31-23.02-8.3-8.63-4.34-16.01-9.82-22.76-16.85l-3.94,8.28ZM34.17,123.86c1.75.17,3.22-.46,4.31-1.6,15.07-15.89,27.01-34.06,36.31-53.94-11.03-1.94-20.64-5.68-29.98-10.81-7.21-3.93-13.62-8.39-19.68-14l-7.96,17.79c-6.18,13.82-10.25,28.16-12.78,43.04-.49,2.36.14,4.21,1.78,5.93,7.35,7.71,17.15,12.57,28.01,13.59"/>
      <path class="cls-2" d="M34.17,123.86c-10.86-1.02-20.66-5.88-28.01-13.59-1.64-1.72-2.27-3.58-1.77-5.94,2.53-14.88,6.6-29.22,12.78-43.04l7.96-17.79c6.05,5.61,12.46,10.07,19.68,14,9.35,5.12,18.96,8.87,29.98,10.81-9.29,19.88-21.23,38.04-36.31,53.94-1.08,1.14-2.56,1.77-4.31,1.6M14.82,89.38c3.26-12.27,7.29-23.37,12.27-34.78.22-.51-.05-1.84-.5-2.03-.44-.19-1.53.48-1.78,1-5.62,11.48-10,23.06-13,35.41-.17.7.62,2.24,1.23,2.22.51-.02,1.57-1,1.79-1.8M11.56,103.78l1.28-6.23c.11-.52-.61-1.6-1.04-1.74-.44-.14-1.6.79-1.69,1.24l-1.22,6.44c-.08.43.76,1.59,1.18,1.57.42-.02,1.42-.86,1.5-1.27"/>
      <path class="cls-2" d="M25.64,38.17l3.94-8.28c6.76,7.04,14.13,12.52,22.76,16.85,7.39,3.99,14.89,6.69,23.02,8.3l1.63-1.33c.37-.3-.85-1.45-1.34-1.8-16.11-3.56-30.54-11.54-42.89-22.92,1.96-1.25,3.72-2.62,5.32-4.31,3.87-4.11,9-6.43,14.55-5.98,7.03,6.89,15.75,11.46,25.48,12.8,3.71,3.82,5.18,9.26,4.23,14.63-.65,3.67-.35,6.77.84,10.35-.85,2.68-2.43,5.68-4.06,8.13-19.09-2.23-39.71-12.58-53.48-26.44M50.62,24.61c.6-.1,1.6-1.12,1.49-1.71-.49-2.56-8.04-1.16-12.85,5.2-.41.55-.39,1.9.07,2.27,2.15,1.74,3.73-4.52,11.29-5.76"/>
      <path class="cls-2" d="M56.89,14.65c5.66,4.65,11.07,8.21,17.97,9.68l1.87-.73c.41-.16-.54-1.51-.82-1.79-6.72-1.92-12.43-5.13-17.6-9.77l4.72-6.65c2.42-3.42,12.45.99,18.07,5.71,1.09.92,1.89,3,1.41,4.42l-4.14,12.17c-8.66-1.22-16.06-5.47-22.65-11.05l1.19-1.99Z"/>
      <path class="cls-2" d="M14.82,89.38c-.21.81-1.28,1.79-1.79,1.8-.61.02-1.4-1.51-1.23-2.22,3-12.34,7.39-23.93,13-35.41.25-.52,1.34-1.19,1.78-1,.44.2.72,1.52.5,2.03-4.97,11.41-9.01,22.52-12.27,34.78"/>
      <path class="cls-2" d="M11.56,103.78c-.08.41-1.08,1.25-1.5,1.27-.42.02-1.26-1.14-1.18-1.57l1.22-6.44c.09-.45,1.25-1.39,1.69-1.24.44.14,1.15,1.22,1.04,1.74l-1.28,6.23Z"/>
      <path class="cls-2" d="M50.62,24.61c-7.56,1.24-9.13,7.5-11.29,5.76-.46-.37-.48-1.72-.07-2.27,4.81-6.37,12.36-7.76,12.85-5.2.11.6-.89,1.62-1.49,1.71"/>
    </g>
  </g>
</svg>