<?xml version="1.0" encoding="UTF-8"?>
<svg id="Layer_2" data-name="Layer 2" xmlns="http://www.w3.org/2000/svg" viewBox="0 0 93.29 144.33">
  <defs>
    <style>
      .cls-1 {
        fill: #fdb718;
      }

      .cls-2 {
        fill: #020403;
      }
    </style>
  </defs>
  <g id="Layer_1-2" data-name="Layer 1">
    <g>
      <path class="cls-1" d="M64.57,116.2c-2.14-2.32-4.79-3.11-7.6-1.69-2.84,1.44-5.45,4.01-6.67,7.17l-7.52,19.5c-.81,2.1-2.96,3.7-5.2,2.98l-10.51-3.38c-2.19-.7-2.88-3.24-2.14-5.22,1.38-3.7,2.35-7.11,2.65-11.12.12-1.61-1.43-4.78-3.06-4.57l-7.98,1.02c-3.09.39-5.92-2.42-7.16-5.08-1.96-4.2-2.59-9.46.65-13.18,1.46-1.67,5.21-2.41,7.09-3.13l-.72-7.89c-.87-3.61-1.28-6.7,3.05-8.86l-5.24-10.25c-2.19-4.28-2.94-9.59-4.32-14.32L1.35,28.72C-.14,23.58-.29,18.14.38,12.97,1.34,5.65,7.13.97,14.24.14c16.36-1.91,18.51,16.39,18.93,31.42l1.06,38.08-1.14,10.57c2.07.76,3.68,1.54,4.5,2.6,1.16,1.5.67,4.06.97,5.43l1.52,7.02,16.2-3.07,2.91-4.14c.78-1.11,3.96-1.57,5.26-2.02l2.32-6.39c1.07-2.93,3.98-4.82,6.64-5.46,16.15-3.84,26.43,33.87,15.08,46.61-4.03,4.52-11.43,4.32-15.27-.36l-3.51-4.28-5.14.07ZM29.55,68.24l-.5-15.74-.92-27.93c-.15-4.66-1.31-9.31-2.82-13.55-1.66-4.66-5.53-6.67-10.23-6.23-5.42.51-9.6,3.81-10.16,9.43-.44,4.41-.28,9.1.97,13.5l7.66,27.02,4.36,15.42,11.64-1.92ZM28.43,80.77l.9-7.96-9.2,1.39,3.63,7.35,4.67-.78ZM32.97,87.26c.51-.09,1.53-1,1.27-1.33-1.44-1.79-13.04-.58-14.04,2.34-.1.29.81,1.16,1.17,1.09l11.6-2.1ZM83.78,118.61c10.31-7.09,2.59-41.11-8.8-40.18-3.2.26-5.14,3.97-5.52,6.72,3.14-.74,5.93-.28,7.78,2.19,4.59,6.13,6.31,14.29,4.69,21.72-.77,3.51-2.82,5.63-6.94,5.94,1.05,3.05,5.24,6.05,8.79,3.6M34.59,91.62l-13.55,2.35c-.58,3.57,1.94,6.13,5.1,7.21,2.96,1.01,5.78.28,7.66-1.84,1.83-2.06,2.38-4.87.78-7.71M77.23,109.8c2.04-7.73.3-14.38-4.03-20.59l-7.68,1.23c4.85,6.01,5.85,13.28,4.12,21.1l7.59-1.74ZM30.62,118.5c1.03,3.43,2.01,6.27,1.2,9.46l-2.26,8.88,8.88,2.89,8.17-21.14c2.35-6.08,11.54-11.82,18.55-8.2,1.86-6.24.84-13.67-3.6-17.35-1.63,1.92-3.26,3.46-5.53,3.89l-13.49,2.51-3.59-.14c-2.78,6.33-10.05,8.62-16.1,5-1.66-1-3.29-1.39-5.47-.1,2.2,3.65,2.84,7.48,2.34,11.57l9.83-1.21c3.83-.47,7.23,2.68,7.7,6.29.06.47-.56,1.75-1.01,1.72-1.95-.14-2.21-3.64-5.63-4.07M15.23,116.05c1.46-3.82.48-7.84-2.21-9.87-1.25,3.7-.81,7.74,2.21,9.87"/>
      <path class="cls-2" d="M29.55,68.24l-11.64,1.92-4.36-15.42-7.66-27.02c-1.25-4.41-1.41-9.1-.97-13.5.56-5.62,4.73-8.91,10.16-9.42,4.7-.44,8.57,1.57,10.23,6.23,1.51,4.24,2.66,8.89,2.82,13.55l.92,27.93.5,15.74ZM14.03,33.96l-2.42-14c-.96-5.55,3.47-9.94,1.19-10.75-2.52-.9-4.81,3.64-4.88,8.15-.1,6.09,1.4,12.42,3.39,18.05.24.68,2.15,1.26,2.38.72.18-.43.43-1.65.35-2.17M13.99,39.78c-1.74,2-.65,6.78,1.78,7.5,1.79.53,2.18-5.74-1.78-7.5"/>
      <path class="cls-2" d="M30.62,118.49c3.42.43,3.68,3.93,5.63,4.07.45.03,1.07-1.25,1.01-1.72-.47-3.61-3.87-6.76-7.7-6.29l-9.83,1.21c.5-4.09-.14-7.92-2.34-11.57,2.18-1.29,3.8-.9,5.47.1,6.05,3.62,13.31,1.33,16.1-5l3.59.14,13.49-2.51c2.27-.42,3.9-1.97,5.53-3.89,4.44,3.68,5.46,11.11,3.6,17.35-7.02-3.62-16.2,2.12-18.55,8.2l-8.17,21.14-8.88-2.89,2.26-8.88c.81-3.19-.16-6.03-1.2-9.46"/>
      <path class="cls-2" d="M83.78,118.61c-3.56,2.45-7.74-.56-8.79-3.6,4.11-.32,6.17-2.43,6.94-5.94,1.62-7.44-.1-15.6-4.68-21.73-1.85-2.47-4.65-2.92-7.78-2.19.38-2.75,2.32-6.47,5.52-6.72,11.4-.92,19.11,33.1,8.8,40.18"/>
      <path class="cls-2" d="M77.23,109.8l-7.59,1.74c1.73-7.82.74-15.09-4.12-21.1l7.68-1.23c4.33,6.21,6.07,12.86,4.03,20.59"/>
      <path class="cls-2" d="M34.6,91.62c1.61,2.84,1.06,5.65-.78,7.71-1.89,2.12-4.71,2.86-7.67,1.85-3.16-1.08-5.69-3.64-5.1-7.21l13.55-2.35Z"/>
      <polygon class="cls-2" points="28.43 80.77 23.76 81.55 20.13 74.2 29.33 72.81 28.43 80.77"/>
      <path class="cls-2" d="M32.97,87.26l-11.6,2.1c-.37.07-1.27-.8-1.17-1.09,1-2.92,12.6-4.13,14.04-2.34.26.33-.76,1.24-1.27,1.33"/>
      <path class="cls-2" d="M15.23,116.05c-3.03-2.12-3.47-6.16-2.21-9.87,2.69,2.03,3.67,6.04,2.21,9.87"/>
      <path class="cls-1" d="M14.03,33.96c.09.52-.16,1.73-.35,2.17-.22.54-2.14-.04-2.38-.72-1.99-5.63-3.49-11.96-3.39-18.05.08-4.51,2.36-9.05,4.88-8.15,2.28.81-2.15,5.21-1.19,10.75l2.42,14Z"/>
      <path class="cls-1" d="M13.99,39.78c3.96,1.75,3.57,8.03,1.78,7.5-2.43-.72-3.52-5.5-1.78-7.5"/>
    </g>
  </g>
</svg>